<?xml version="1.0" encoding="UTF-8"?>
<svg xmlns="http://www.w3.org/2000/svg" width="1024" height="1024" viewBox="0 0 1024 1024">
  <rect width="1024" height="1024" fill="#f4f2ec"/>
  <g opacity="1" fill="#0a0a0a">
    <rect x="200" y="200" width="84" height="84" rx="15.12"/>
    <rect x="316" y="210.08" width="520" height="26.88" rx="8"/>
    <rect x="316" y="247.04000000000002" width="360" height="26.88" rx="8"/>
  </g>
<g opacity="0.7" fill="#0a0a0a">
    <rect x="200" y="370" width="84" height="84" rx="15.12"/>
    <rect x="316" y="380.08" width="480" height="26.88" rx="8"/>
    <rect x="316" y="417.03999999999996" width="300" height="26.88" rx="8"/>
  </g>
<g opacity="0.4" fill="#0a0a0a">
    <rect x="200" y="540" width="84" height="84" rx="15.12"/>
    <rect x="316" y="550.08" width="420" height="26.88" rx="8"/>
    <rect x="316" y="587.0400000000001" width="240" height="26.88" rx="8"/>
  </g>
<g opacity="0.16" fill="#0a0a0a">
    <rect x="200" y="710" width="84" height="84" rx="15.12"/>
    <rect x="316" y="720.08" width="340" height="26.88" rx="8"/>
    <rect x="316" y="757.0400000000001" width="160" height="26.88" rx="8"/>
  </g>
</svg>